<svg width="512" height="512" viewBox="0 0 512 512" xmlns="http://www.w3.org/2000/svg">
  <path fill="#D26A4A" d="M511.1 27.6c1.1 1.1 1.1 2.9 0 4l-44.2 44.2c-1.1 1.1-2.9 1.1-4 0l-46.8-46.8c-1.1-1.1-1.1-2.9 0-4l44.2-44.2c1.1-1.1 2.9-1.1 4 0l46.8 46.8zm-113.1 22.3L113.5 334.3c-10.8 10.8-10.8 28.4 0 39.2l46.8 46.8c10.8 10.8 28.4 10.8 39.2 0l284.5-284.5c1.1-1.1 1.1-2.9 0-4l-46.8-46.8c-1.1-1.1-2.9-1.1-4 0l-39.2 39.2zm-284.5 311l-46.8-46.8-88 73.3c-.3 3-.9 6-1 9.1 0 76.4 52.1 120.2 128 120.2 90.1 0 128-72.4 128-120.2-.3-3-.9-6-1-9.1l-88-73.3-31.2 46.8z"/>
</svg>
